<?xml version="1.0" encoding="utf-8"?>
<!-- Generator: Adobe Illustrator 24.1.1, SVG Export Plug-In . SVG Version: 6.00 Build 0)  -->
<svg version="1.1" id="Camada_1" xmlns="http://www.w3.org/2000/svg" xmlns:xlink="http://www.w3.org/1999/xlink" x="0px" y="0px"
	 viewBox="0 0 500 500" style="enable-background:new 0 0 500 500;" xml:space="preserve">
<style type="text/css">
	.st0{fill:#8854D0;}
	.st1{opacity:0.9;fill:#FFFFFF;enable-background:new    ;}
	.st2{fill:#F5F5F5;}
	.st3{opacity:0.5;fill:#FFFFFF;enable-background:new    ;}
	.st4{opacity:0.7;}
	.st5{fill:#FFFFFF;}
	.st6{opacity:0.7;fill:#FFFFFF;enable-background:new    ;}
	.st7{opacity:0.1;enable-background:new    ;}
	.st8{opacity:0.2;enable-background:new    ;}
	.st9{fill:#263238;}
	.st10{fill:#E8483F;}
	.st11{opacity:0.1;}
	.st12{fill:#FFB373;}
	.st13{opacity:0.2;}
	.st14{opacity:0.1;fill:#E0E0E0;enable-background:new    ;}
</style>
<g id="freepik--background-simple--inject-2">
	<path class="st0" d="M399,92.8c-11.6,2.7-21.3,10.5-30.1,18.6c-30.4,28.4-54.3,63.8-88.5,87.3c-33.3,22.6-73.8,32.2-113.7,26.9
		c-21.6-2.9-42.4-10.2-64.1-11.2s-45.7,6-56.9,24.6c-9.7,16.1-7.1,37.8,3.6,53.3S77.7,317.5,96,322s37.4,4.1,56.2,2.9
		c67.5-4.5,133.7-20.4,199.3-37.1c18.8-4.8,37.6-9.6,55.1-17.9c17.5-8.2,33.7-20.2,44.1-36.5c7.7-12.2,12-27.1,9.1-41.2
		c-2.9-14.1-13.9-26.9-28.1-29.5c3.2,0.6,7.3-22.2,7.5-24.7c0.8-9,0-19-3.4-27.4C430.2,96.8,413.3,89.5,399,92.8z"/>
	<path class="st1" d="M399,92.8c-11.6,2.7-21.3,10.5-30.1,18.6c-30.4,28.4-54.3,63.8-88.5,87.3c-33.3,22.6-73.8,32.2-113.7,26.9
		c-21.6-2.9-42.4-10.2-64.1-11.2s-45.7,6-56.9,24.6c-9.7,16.1-7.1,37.8,3.6,53.3S77.7,317.5,96,322s37.4,4.1,56.2,2.9
		c67.5-4.5,133.7-20.4,199.3-37.1c18.8-4.8,37.6-9.6,55.1-17.9c17.5-8.2,33.7-20.2,44.1-36.5c7.7-12.2,12-27.1,9.1-41.2
		c-2.9-14.1-13.9-26.9-28.1-29.5c3.2,0.6,7.3-22.2,7.5-24.7c0.8-9,0-19-3.4-27.4C430.2,96.8,413.3,89.5,399,92.8z"/>
</g>
<g id="freepik--Shadow--inject-2">
	<ellipse id="freepik--path--inject-2" class="st2" cx="250.1" cy="438.2" rx="219.9" ry="12.8"/>
</g>
<g id="freepik--speech-bubble--inject-2">
	<path class="st0" d="M399.3,289.2l-2.7-0.7c-2.9-0.6-5.8-1.5-8.5-2.8l-0.4-0.2c-2.7-1.3-6-2.9-6.8-8.6c0-0.8-0.6-1.4-1.3-1.5
		c-25-1.2-44.8-15.1-44-31c0.8-15.9,21.8-27.8,46.8-26.6c25,1.2,44.8,15.1,44,31c-0.5,10.1-9.5,19.3-23.5,23.7
		c-0.4,0.2-1.1,0.4-2.1,0.6c-3.5,0.9-10,2.6-11.6,6c-0.8,1.7,0.5,3.8,2.1,5c0.9,0.6,1.8,1.1,2.7,1.5c1.1,0.5,2.1,1.1,3.1,1.7
		L399.3,289.2z M378.9,218.8c-22.9,0-41.5,11.1-42.2,25.6c-0.7,15.3,18.5,28.6,42.9,29.8c1.3,0.1,2.3,1.2,2.4,2.5
		c0.6,5,3.6,6.5,6.1,7.7l0.4,0.2c1.2,0.6,2.5,1.1,3.8,1.5c-0.6-0.3-1.2-0.7-1.7-1c-2-1.5-3.6-4.2-2.5-6.4c1.9-3.9,8.7-5.7,12.4-6.6
		c0.9-0.2,1.7-0.4,2-0.6c13.6-4.4,22.2-13.1,22.7-22.7c0.7-15.3-18.5-28.6-42.9-29.8C381.2,218.9,380,218.9,378.9,218.8L378.9,218.8
		z"/>
	<path class="st0" d="M383.2,261.3l-3.2,2.3c0,0,0,0-0.1,0.1l-3.1-2.6c-9.7-8.5-20.8-17.7-12.1-25.3c6-5.3,13-0.4,16.5,2.8
		c3.7-2.9,11.6-11.3,18.2-1.1C405,245.9,393.5,253.5,383.2,261.3z"/>
	<path class="st3" d="M365.2,239c0.6,0,1,0.5,1,1.1c0,0.6-0.5,1-1.1,1c-0.6,0-1-0.5-1-1.1c0-0.5,0.4-0.9,1-1H365.2z"/>
	<path class="st3" d="M369,250.5c-2.7-1.7,0-7.8-3.4-8.4C363.2,243.2,365.7,248.3,369,250.5z"/>
</g>
<g id="freepik--Floor--inject-2">
	<rect x="10.6" y="383" class="st0" width="476.6" height="17.7"/>
	<g class="st4">
		<rect x="10.6" y="383" class="st5" width="476.6" height="17.7"/>
	</g>
	<rect x="35.2" y="383" class="st5" width="1.1" height="18.5"/>
	<rect x="141.8" y="383" class="st5" width="1.1" height="18.5"/>
	<rect x="248.4" y="383" class="st5" width="1.1" height="18.5"/>
	<rect x="355" y="383" class="st5" width="1.1" height="18.5"/>
	<rect x="461.6" y="383" class="st5" width="1.1" height="18.5"/>
</g>
<g id="freepik--Tree--inject-2">
	<path class="st0" d="M345.4,87.9c-20.4-21.6-46.1-28.9-65-20.9c-5.5,2.4-12,1.2-16.3-3c-22.8-22-59.7-24.6-75-3.8
		c-1.7,2.3-3.2,4.8-4.4,7.4c-2,4.3-5.1,8-9.1,10.6c-2.7,1.8-5.1,4-7,6.6c-4.9,6.6-7,15.2-6.6,24.4c0.2,2.7-1.3,5.2-3.8,6.4
		c-4.2,1.9-7.8,4.8-10.5,8.6c-12.4,16.8-6.9,46.8,12.2,66.9c17,17.9,39.2,22.1,52.6,10.8c1.2-1,2.9-1,4,0c9.6,7.7,20.9,7.8,26.7-0.6
		l0,0c1-1.5,3-1.8,4.4-0.8c0.1,0.1,0.2,0.2,0.3,0.2c9.9,8.9,22,9.4,28.1,0.6c1.1-1.6,1.9-3.4,2.5-5.2c0.5-1.7,2.2-2.6,3.9-2.1
		c0.1,0,0.1,0,0.2,0.1c6.5,2.3,12.9,1.3,17.2-3.3c0.9-1,2.4-1.2,3.7-0.6c22.3,11.9,45.8,9.6,58.9-8.1
		C380.1,158.4,372.4,116.3,345.4,87.9z"/>
	<path class="st3" d="M345.4,87.9c-20.4-21.6-46.1-28.9-65-20.9c-5.5,2.4-12,1.2-16.3-3c-22.8-22-59.7-24.6-75-3.8
		c-1.7,2.3-3.2,4.8-4.4,7.4c-2,4.3-5.1,8-9.1,10.6c-2.7,1.8-5.1,4-7,6.6c-4.9,6.6-7,15.2-6.6,24.4c0.2,2.7-1.3,5.2-3.8,6.4
		c-4.2,1.9-7.8,4.8-10.5,8.6c-12.4,16.8-6.9,46.8,12.2,66.9c17,17.9,39.2,22.1,52.6,10.8c1.2-1,2.9-1,4,0c9.6,7.7,20.9,7.8,26.7-0.6
		l0,0c1-1.5,3-1.8,4.4-0.8c0.1,0.1,0.2,0.2,0.3,0.2c9.9,8.9,22,9.4,28.1,0.6c1.1-1.6,1.9-3.4,2.5-5.2c0.5-1.7,2.2-2.6,3.9-2.1
		c0.1,0,0.1,0,0.2,0.1c6.5,2.3,12.9,1.3,17.2-3.3c0.9-1,2.4-1.2,3.7-0.6c22.3,11.9,45.8,9.6,58.9-8.1
		C380.1,158.4,372.4,116.3,345.4,87.9z"/>
	<path class="st0" d="M205,211.8l18.2,16.9c-1.5,23.9-2.7,79-2.7,79l-6.5,38.5l57.2,0.5c0,0-2.6-32.5-2.6-34.3c0-1.8-11-64-11-64
		l-3.9-34.9l29.5-9l5.4-15.5l21.7-12.3l10.6-16.3l-4.1-1l-11.7,15l-13.6,3l5.8-13.8h-6.5l-16.2,32.1l-21,4.2l2.7-45
		c-20.1,6.3-22.1-5.2-22.1-5.2s-6.9,60.6-9.3,67.5l-10.8-5.4l-11.7-18.5h-5.2L205,211.8z"/>
	<path class="st6" d="M205,211.8l18.2,16.9c-1.5,23.9-2.7,79-2.7,79l-6.5,38.5l57.2,0.5c0,0-2.6-32.5-2.6-34.3c0-1.8-11-64-11-64
		l-3.9-34.9l29.5-9l5.4-15.5l21.7-12.3l10.6-16.3l-4.1-1l-11.7,15l-13.6,3l5.8-13.8h-6.5l-16.2,32.1l-21,4.2l2.7-45
		c-20.1,6.3-22.1-5.2-22.1-5.2s-6.9,60.6-9.3,67.5l-10.8-5.4l-11.7-18.5h-5.2L205,211.8z"/>
</g>
<g id="freepik--Characters--inject-2">
	<path class="st0" d="M214,326.1c-1-1.5-1.7-2.4-1.7-2.4s13.5-0.2,22.7,3.3c9.2,3.5,25.3,18.2,35.9,14.7c4.5-1.4,8.8-3.2,13-5.3
		c2.3-1.2,4.7-2.3,7.1-3.1c2.2-0.7,4.4-1.3,6.7-1.7c0,0,4.1,1.7-5.2,12.6s-18.2,16-29.2,14.5c-6-0.8-22-6-31-12.2
		c-3.9-2.7-9.1-8-12.7-12.4c0.7-0.1,2.3,0.7,4.2-0.5c-2.5,0.1-4.8-0.9-6.5-2.7c1,0.4,2.2,0.2,3-0.5
		C217.8,329.8,215.4,328.3,214,326.1z"/>
	<path class="st7" d="M248.9,346.6l-3,2.1c1.8,0.9,4,0.8,5.7-0.3l-1.8,2.9l27.2-1.3c0.9-0.1,1.7,0,2.6,0.3c1.4,0.8,2.2,2.5,1.8,4.1
		l-0.1,0.3c-5.2,3.5-11.6,5-17.8,4.1c-6-0.8-22-6-31-12.2c-1.4-1-2.8-2.1-4.1-3.3c2.6,0.3,5.2,0.9,7.6,1.9
		C240.1,346.4,244.7,348,248.9,346.6z"/>
	<path class="st0" d="M275,360.9l-4.9,27.3c-0.2,1.1-0.8,2.2-1.6,3l-1.1,1.1c-1.7,1.5-2.8,3.7-3,6l-3.1,32.7
		c-0.1,1.3,0.2,2.6,0.9,3.7l3.2,5c0.2,0.4,0.7,0.6,1.1,0.6h10.4c0.7,0,1.3-0.6,1.3-1.3c0-0.3-0.1-0.5-0.2-0.7
		c-2-2.9-4.7-5.4-7.7-7.3c-5.5-3.1,25-50.2,25-50.2S285.4,343.2,275,360.9z"/>
	<path class="st7" d="M275,360.9l-4.9,27.3c-0.2,1.1-0.8,2.2-1.6,3l-1.1,1.1c-1.7,1.5-2.8,3.7-3,6l-3.1,32.7
		c-0.1,1.3,0.2,2.6,0.9,3.7l3.2,5c0.2,0.4,0.7,0.6,1.1,0.6h10.4c0.7,0,1.3-0.6,1.3-1.3c0-0.3-0.1-0.5-0.2-0.7
		c-2-2.9-4.7-5.4-7.7-7.3c-5.5-3.1,25-50.2,25-50.2S285.4,343.2,275,360.9z"/>
	<path class="st0" d="M412.5,361.2l6.6,16.9c0.4,1.2,0.7,2.4,0.9,3.6l1.3,11.6c0.4,3.4,1.6,6.7,3.5,9.5c3.7,5.4,10.7,19.8,12.9,24.3
		c0.4,0.9,1,1.7,1.8,2.3l4.5,3.7c1.4,1.1,2.3,2.8,2.4,4.5c0.2,1.6,0.2,3.4-0.4,3.4h-5.7c-2,0-3.8-0.9-5.1-2.4
		c-2.9-3.4-7.9-9.2-9.2-9.6c-1.5-0.4-17.1-18-24-25.6c-1.6-1.8-2.5-4.1-2.5-6.4l0,0c0-2.3-1.8-4.1-4.1-4.1c-0.4,0-0.8,0.1-1.2,0.2
		c-4.5,1.4-13.8,2.5-16.6,2.9c0,0,19.8-21.6,19.3-35.6c-0.5-14,15.1-8.4,15.5-4.8C412.6,357.5,412.7,359.4,412.5,361.2z"/>
	<path class="st7" d="M412.5,361.2l6.6,16.9c0.4,1.2,0.7,2.4,0.9,3.6l1.3,11.6c0.4,3.4,1.6,6.7,3.5,9.5c3.7,5.4,10.7,19.8,12.9,24.3
		c0.4,0.9,1,1.7,1.8,2.3l4.5,3.7c1.4,1.1,2.3,2.8,2.4,4.5c0.2,1.6,0.2,3.4-0.4,3.4h-5.7c-2,0-3.8-0.9-5.1-2.4
		c-2.9-3.4-7.9-9.2-9.2-9.6c-1.5-0.4-17.1-18-24-25.6c-1.6-1.8-2.5-4.1-2.5-6.4l0,0c0-2.3-1.8-4.1-4.1-4.1c-0.4,0-0.8,0.1-1.2,0.2
		c-4.5,1.4-13.8,2.5-16.6,2.9c0,0,19.8-21.6,19.3-35.6c-0.5-14,15.1-8.4,15.5-4.8C412.6,357.5,412.7,359.4,412.5,361.2z"/>
	<path class="st0" d="M289.8,333.8h0.1c2.2-0.7,4.8-1.4,7.9-2.1c21.1-4.9,60.3-9.7,79-9.2c0.9,0,1.8,0.1,2.6,0.1h0.1
		c1.4,0.1,2.7,0.2,4.1,0.5c0.8,0.1,1.6,0.4,2.4,0.7c0.3,0.1,0.6,0.3,0.8,0.5c9.1,8.8,23.3,14.8,25.1,30.1c0,0.2,0.1,0.4,0.1,0.7
		c0.1,1.2,0.1,2.4,0.1,3.7c0,0.2,0,0.4,0,0.7c0,0.5-0.1,1-0.1,1.5c0,0.1,0,0.2,0,0.3l0,0c-0.6,6-2.9,13.2-7.4,22.1
		c-0.4,0.8-0.8,1.6-1.3,2.4c-1.7,2.8-4.2,5-7.2,6.2l-0.5,0.2l0,0c-1.4,0.6-2.8,1.1-4.2,1.5h-0.1c-3.9,1.1-8,1.8-12,2l-1,0.1
		c-1,0.1-2,0.1-3,0l0,0c-2.8-0.2-5.6-0.7-8.1-0.3c-0.2,0-0.4,0.1-0.7,0.1l-0.3,0.1c-1.1,0.3-2.1,0.8-2.9,1.5
		c-0.2,0.1-0.3,0.3-0.5,0.4c-0.6,0.6-1.1,1.3-1.6,2c-0.7,1.3-1.2,2.7-1.4,4.2c-0.1,0.8-0.2,1.6-0.4,2.5c-1.6,10.8-3.6,25.5,5.2,28
		c3.4,1,2.7,4.4,3,5.4c1.5,5.1-10.2,3.8-10.2,3.8c-2.9-1-6.3-2.3-9-1.5c-1.1,0.3-2.6-1.5-2.4-2.7c1.9-13.4-1.3-26.2-2.4-44.5H343
		l-21.4-1.1h-0.9h-0.4l0,0c-0.2,0.6-4.6,16.8-0.8,26c3,7.1,9.6,11.7,17.2,13.2c3,0.6,2.9,3.4,3.8,6.6c0.9,3.3-5.1,2.2-8.5,2.1
		c0,0-19.6-6.2-25.8-16.7c-2-3.4,2.2-6.9,0.6-10.5c-3.4-7.6-9.3-15.9-14-22.8c-0.8-1.1-1.6-2.2-2.4-3.2c-2.9-3.8-6.2-7.3-9-11.1
		c-0.2,1-0.4,2-0.5,2.8c-1.1-1.7-1.7-3.8-1.8-5.8l-2.3,4.4c-0.7-4.7-1.3-9.3-2-13.9c-0.1-0.4-0.1-0.7-0.1-1.1c0-0.4,0-0.8,0-1.1
		c-0.2-1.5-0.3-3.1-0.3-4.7l0,0c0-2.7,0.4-5.3,1.2-7.8c1.5-5.3,4.6-10.1,8.9-13.7L289.8,333.8z"/>
	<path class="st7" d="M366.7,394.9c-0.2,0.3-0.4,0.5-0.6,0.8c3.7-1,8.1,0.4,12.2,0.2c5.2-0.3,11.2-2.7,16.5-5.1c0,0,5.8-4,7.7-6.5
		c0.6-0.7,1-1.5,1.2-2.4c0.8-2.6,1-4.1-1.7-5.7c-3.8-2.3-16.1,1.7-20,3.1c-5.7,2.1-10.9,5.9-13.4,11.4
		C368.1,392.2,367.4,393.6,366.7,394.9z"/>
	<path class="st7" d="M362.7,397.6c0.2-0.2,0.3-0.3,0.5-0.4h-0.4C362.7,397.3,362.7,397.4,362.7,397.6z"/>
	<path class="st7" d="M316.4,384c1.8,1.9,3.8,5.9,3.8,8.2c0,1.1,0,1.3,0.1,1.4l1.9,0.1l21.2,1c0.1-2.3-0.5-4.6-1.8-6.6l-6.6-10
		c0.1,2,0.1,4,0.1,6c-1.6-2.3-3.5-4.5-5.6-6.3c-0.1,1.8-0.1,3.6-0.2,5.4l-3.4-2.3c0.1,1.3,0.2,2.6,0.2,3.9c-0.7-0.8-1.8-1.2-2.8-0.9
		c0.5,0.7,0.9,1.5,1,2.4c0,0.9-0.7,1.8-1.5,1.8c-0.4-0.1-0.8-0.3-1.1-0.5C319.9,386.4,318.1,385.2,316.4,384z"/>
	<path class="st0" d="M391.2,302.2c7.1-3.5,15.2-3.9,23.1-3.8c3.6,0,7.4,0.2,10.6,2c3.2,1.8,5.4,5.7,4,9.1l9.3,0.3
		c1.8,6.5-0.7,13.5-6.2,17.4l2.5,0.5c1.7,0.7,1.8,3.3,0.6,4.7c-1.1,1.5-3,2.1-4.6,2.8c-6.8,3.1-12.1,8.8-14.7,15.8
		c-1.1,3.2-3.7,12-6.7,13.6c-3.9,2-6.8-5.8-10.1-8.7c-5.4-4.8-10.7-10-14.4-16.2C377.2,327,376.5,309.6,391.2,302.2z"/>
	<path class="st8" d="M415.4,329.5c2.1,1.5,4.7,1.7,7.3,1.8l12.7,0.7c0.7-1,0.8-2.3,0.3-3.5c-0.2-0.5-0.6-0.9-1.1-1.1L432,327
		c5.5-3.9,8-10.8,6.2-17.4l-2.7-0.1v4.2c-1.1,11.5-12.2,11.5-21.6,9.2C412.3,324.8,413.3,328,415.4,329.5z"/>
	<path class="st7" d="M378.9,332.4c-3.1,3.3,7.3-5.9,7.7-10.5c2.5,0.7,5.2-0.9,6.5-3.2c1.1-2.4,1.7-4.9,1.7-7.5c0,0-1.4,6.5-5.3,6.5
		h-3.9C385.6,317.7,381.5,329.6,378.9,332.4z"/>
	<path class="st9" d="M413.7,310c0,0.7,1,1.3,2.3,1.3s2.3-0.6,2.3-1.3s-1-1.3-2.3-1.3S413.7,309.3,413.7,310z"/>
	<path class="st7" d="M413.5,349.9c-0.4-2.3-1.7-4.5-3.9-5.2c1.2,0.5,2.5-0.1,2.9-1.3c0.5-1.2-0.1-2.5-1.3-3
		c-0.2-0.1-0.4-0.1-0.6-0.1c1.8-0.3,2.8-3,1.8-4.8c-1.1-1.9-3.4-2.8-5.6-3.3h0.1c6.8,0.7,13.5,1.9,20.1,3.6l1.2,0.3
		c-5.8,3.3-10.2,8.5-12.5,14.7c-0.5,1.5-1.4,4.1-2.4,6.7c0-0.3,0-0.6,0-0.9C413.8,354.5,413.7,352.2,413.5,349.9z"/>
	<path class="st9" d="M433.5,309.5l4.8,0.1c0.6,2,0.7,4.2,0.4,6.3C435.9,314.9,433.9,312.4,433.5,309.5z"/>
	<path class="st10" d="M425,329.4c1.4,0.1,3.1,0.1,4.9,0h0.1h0.6h0.7c1.6-0.1,2.9,0.8,4.5,1.7c0.8,0.6,1.7,1,2.6,1.3
		c0.9,0.3,2,0,2.6-0.7c0.5-0.9,0.3-1.9-0.3-2.6c-0.7-0.7-1.5-1.1-2.5-1.3c-1.9-0.5-3.8-0.6-5.7-0.5c-0.2,0-0.4,0-0.6,0.1
		C429.3,327.5,426.8,328.8,425,329.4z"/>
	<path class="st10" d="M425,329.4c1.6,0.1,3.3,0.1,4.9,0C428,329.4,426.4,329.4,425,329.4z"/>
	<path class="st9" d="M417.4,327.9c2.4,1,5,1.5,7.6,1.5c2-0.6,4.7-2.1,7.6-2.3L432,327c-5.3,1-10.8,0.2-15.6-2.3
		C416.5,324.7,413.5,325.9,417.4,327.9z"/>
	<path class="st0" d="M412.6,380.4c0.1-1.7-0.6-3.4-1.8-4.7c0.3,4-0.6,7.9-2.4,11.5l0.1-4.2c-1.4,2.4-3.5,4.4-6,5.7
		c1.2-0.9,2-2.3,2.2-3.8c-1.4,2.3-3,4.4-4.9,6.3c-1.9,1.9-4.4,3.1-7.1,3.3c7.9-5.6,13.3-14.2,14.9-23.8c0.2-2.3,0.6-4.6,1.3-6.8
		c0.7-1.9,2.3-5.4,3.3-2.1C413.9,367.2,413,374.8,412.6,380.4z"/>
	<path class="st0" d="M366.7,398.9l-2-1.9c0.2,2.1-0.3,4.3-1.5,6.1c0-0.9,0-1.8-0.1-2.7c-1.1,2.8-2.9,5.3-5.3,7.1
		c0.5-2.9,1.1-5.8,2-8.7c0.5-2,2.2-7.2,5.1-6.8C367.9,392.5,365.2,397.5,366.7,398.9z"/>
	<path class="st9" d="M379.5,322.3c0.2,1.3,0.1,2.7-0.1,4c0,0.2-0.1,0.3-0.2,0.4c-0.2,4.2,1.4,8.6,4.9,13.2
		c8.2,10.6,23.8,18.4,28.6,18.9c0.6,0.2,0.9,0.9,0.7,1.5c-0.1,0.4-0.4,0.6-0.8,0.7h-0.1c-5.7-0.7-21.7-8.9-30.1-19.8
		c-4.2-5.5-5.9-10.9-5.2-16c0.1-0.9,0-1.8-0.3-2.7L379.5,322.3z"/>
	<path class="st0" d="M381.1,341.2c0.7-1,2.3-2,1.8-3.2c0.8,2.5,1.1,4.5,3,6.2l-0.3-2.8c1.1,3,3.1,5.6,5.6,7.5
		c-0.1-1-0.5-1.8-1.1-2.5c2.2,1.5,4.6,2.4,7.2,2.8c-3.3-5.9-9.6-13.8-16.3-15.7C381,335.1,382.1,339.8,381.1,341.2z"/>
	<path class="st0" d="M399,354.5c0.6-1.1,1.9-2.3,1.3-3.4c1.1,2.4,1.7,4.2,3.9,5.7l-0.7-2.8c1.6,2.8,3.9,5,6.7,6.6
		c-0.2-0.9-0.7-1.8-1.5-2.3c2.4,1.1,4.9,1.7,7.5,1.7c-4.1-5.4-11.6-12.2-18.5-13C398,348.5,399.8,353,399,354.5z"/>
	<path class="st0" d="M132.2,207.7c9.6,5.8,50.8,13,53.3,12.8c2,0,3.8-1,4.8-2.7c1.6-2.9,0.6-6.6-2.3-8.2c-0.3-0.2-0.6-0.3-0.9-0.4
		c-10.6-4.1-29.4-11.9-37.4-16.4c-6.3-3.5,3-48.4-8.8-52.3C121.7,134.3,120.8,200.8,132.2,207.7z"/>
	<g class="st11">
		<path d="M132.2,207.7c9.6,5.8,50.8,13,53.3,12.8c2,0,3.8-1,4.8-2.7c1.6-2.9,0.6-6.6-2.3-8.2c-0.3-0.2-0.6-0.3-0.9-0.4
			c-10.6-4.1-29.4-11.9-37.4-16.4c-6.3-3.5,3-48.4-8.8-52.3C121.7,134.3,120.8,200.8,132.2,207.7z"/>
	</g>
	<path class="st12" d="M184.1,220.8l10.5,5.5c0,0,6.5-9.5,6.7-10.6c0,0-5-4.1-10.4-4.1l-3.5,0.3c-1,0.1-1.8,0.5-2.5,1.3l-1.9,2.4
		c-1.2,1.5-1,3.7,0.5,4.9C183.7,220.6,183.9,220.7,184.1,220.8z"/>
	<path class="st12" d="M192.4,225.2l8.4-9.7l4.9,2.9c0.8,0.5,1.1,1.6,0.6,2.4c0,0.1-0.1,0.1-0.1,0.2l-4.4,5.5
		c-0.9,1.2-2.5,1.6-3.9,1L192.4,225.2z"/>
	<path class="st0" d="M138.5,140.2c4.9,2.3,7,35.6,3.9,71.6c-0.6,7.1-40.5,7.9-47.7,1.5l-14.3-57.9c-1.8-7.4,2.7-14.9,10.1-16.8
		c0.4-0.1,0.9-0.2,1.3-0.3C95,137.9,111,127.3,138.5,140.2z"/>
	<path class="st9" d="M142.4,211.7L142.4,211.7c1.1,6.4,2.4,19.9,5.1,25.8l0.2,0.5c3.4,7.5,0,16.4-7.6,19.7
		c-3.6,1.6-7.7,1.7-11.4,0.3l-8.1-3.1c0,0-3.5,0.2-30.9-7.9c-0.6-0.2-2.3-2.6-2.1-9.4c0.2-5.4,1.3-10.6,3.4-15.6l3.6-8.9
		C110.6,214.8,126.6,214.3,142.4,211.7z"/>
	<path class="st12" d="M180.1,404.5l-0.3,33.3c-1.1,0.5-12.5,4.8-12.7,1.6c-0.5-9.8-1.6-30.3-1.6-30.3L180.1,404.5z"/>
	<path class="st0" d="M182.9,429.6c-0.1,0-0.2-0.1-0.3-0.3c0-0.1,0-0.3,0.1-0.4c0.2-0.1,4.8-3.3,7.2-2.8c0.5,0.1,0.9,0.3,1.1,0.7
		c0.4,0.4,0.4,1,0.1,1.4c-0.5,0.9-2.2,1.2-4,1.4C185.8,429.7,184.3,429.7,182.9,429.6z M189.2,426.7c-1.9,0.4-3.7,1.2-5.3,2.3
		c2.6,0.2,6.1-0.1,6.7-1.1c0.1-0.1,0.1-0.3-0.1-0.7c-0.2-0.2-0.4-0.4-0.7-0.4C189.6,426.7,189.4,426.7,189.2,426.7L189.2,426.7z"/>
	<path class="st0" d="M182.7,429.4c-0.1-0.1-0.1-0.2-0.1-0.3c0-0.2,0.1-3.9,1.7-5.5c0.5-0.4,1.1-0.7,1.8-0.6
		c0.6-0.1,1.1,0.3,1.3,0.9c0.4,1.5-2.7,4.8-4.3,5.7H183L182.7,429.4z M184.8,424.1c-1,1.3-1.5,2.8-1.5,4.4c1.6-1.1,3.8-3.8,3.5-4.7
		c0-0.1-0.1-0.3-0.7-0.3l-0.2,0.1C185.5,423.6,185.1,423.8,184.8,424.1L184.8,424.1z"/>
	<path class="st9" d="M180.5,427.2l-13.6,0.4c-0.6,0-1.1,0.4-1.1,1l-2.4,11.3c-0.2,1.1,2,2.4,2.2,2.4c8.3,0.6,26.1,0.5,32,0.2
		c5.9-0.3,6.4-6.1,3.9-6.5c-10.9-1.9-15.1-4.9-18.7-7.9C182.2,427.5,181.4,427.2,180.5,427.2z"/>
	<g class="st13">
		<polygon points="166.1,419.3 165.6,409.2 180.1,404.5 179.8,418.2 		"/>
	</g>
	<path class="st12" d="M64.5,400.1L46,427.8c-1.1-0.1-13.1-2.9-11.5-5.7c4.9-8.5,15.3-26.2,15.3-26.2L64.5,400.1z"/>
	<path class="st0" d="M53.1,422.6c-0.1-0.1-0.1-0.2-0.1-0.4c0.1-0.1,0.2-0.2,0.3-0.2c0.2,0,5.9-0.1,7.6,1.6c0.3,0.3,0.5,0.7,0.6,1.1
		c0.1,0.5-0.2,1-0.7,1.3c-0.9,0.5-2.5-0.2-4.1-1C55.5,424.3,54.3,423.5,53.1,422.6z M60,423.8c-1.8-0.7-3.7-1.1-5.7-1
		c2.1,1.6,5.2,3.3,6.2,2.8c0.1-0.1,0.3-0.2,0.3-0.7c0-0.3-0.1-0.5-0.3-0.7C60.3,424,60.2,423.9,60,423.8L60,423.8z"/>
	<path class="st0" d="M53.1,422.4c0-0.1,0-0.2,0.1-0.3c0.1-0.1,2.3-3.3,4.5-3.7c0.7-0.1,1.3,0.1,1.8,0.5c0.5,0.3,0.8,0.9,0.6,1.4
		c-0.5,1.5-4.9,2.6-6.8,2.4h-0.1L53.1,422.4z M57.7,419.1c-1.5,0.6-2.8,1.6-3.7,2.9c2-0.1,5.2-1.1,5.5-2c0-0.1,0.1-0.3-0.4-0.6h-0.2
		C58.6,419.1,58.2,419,57.7,419.1z"/>
	<path class="st9" d="M52.5,419.2L41,412.1c-0.5-0.3-1.1-0.2-1.5,0.2l-8.2,8.1c-0.8,0.9,0.4,3.1,0.5,3.2c6.6,5,21.6,14.7,26.6,17.7
		c5.1,3,8.7-1.6,6.9-3.3c-8.1-7.5-9.9-12.4-11.3-16.8C53.8,420.4,53.2,419.7,52.5,419.2z"/>
	<g class="st13">
		<polygon points="44.7,404.8 49.8,396 64.5,400.1 56.8,411.4 		"/>
	</g>
	<path class="st9" d="M115.7,261c3.5,13.9,30.9,49,39.9,72.5c7,18.2,6.2,55.5,6,76.4c-0.1,1.9,0.8,3.8,2.3,5.1c0,0,12-0.5,15.7-1.1
		c11.8-2,8.5-62,7.6-76.7c-1.6-24.9-17.2-65.6-40.9-103.2c-4-6.3-10.9-2.4-20.2,0.1C124.4,234.6,112.3,247.5,115.7,261z"/>
	<path class="st8" d="M123.1,243.9c-2.4-2.5-2.4,28.9-2.4,28.9l13.2,22.8C133.9,295.6,141.3,263.2,123.1,243.9z"/>
	<path class="st9" d="M89.4,244.8C64,381,40.1,390.9,45.2,399.9c0,0,10.8,5.3,13.7,7.7c6.8,5.7,38.9-46.5,43.2-60.6
		c9.6-31.4,22-66.3,23.9-101.5c0.4-7.4-4.1-14.6-13.3-17.5C111.1,227.5,92,231.1,89.4,244.8z"/>
	<path class="st7" d="M102.3,194.1c-0.7,1.1-4.9-1.7-5.7-2.8c-2.5-3.5-3.3-9.8-4-14c-0.9-5-1.3-10-1.1-15.1c0.1-2.1-0.3-12.4,3-8.6
		C97.2,156.7,102.9,193,102.3,194.1z"/>
	<path class="st0" d="M129.3,229.6c-1.3,0.4-2.7-0.3-3.8-1.9c-1.2-1.7-1.9-3.6-2.2-5.7l-3.2,5c-0.6,0.9-1.4,1.9-2.5,1.8
		c-0.6,0-1.1-0.3-1.4-0.7c-0.6-0.8-0.9-1.8-0.7-2.8c0.3-1.8,1.2-3.4,2.7-4.5c1.4-1.1,3.3-1.7,5.1-1.5l-0.2-0.5l1-0.4l0.1,0.3
		l0.2-0.3v0.5c1.7-0.5,3.5,0,4.7,1.2c1.3,1.4,2,3.1,2.2,5C131.4,226.9,131,229,129.3,229.6L129.3,229.6z M124.2,220.1v0.2
		c0,2.4,0.7,4.8,2.1,6.7c0.6,0.9,1.6,1.8,2.6,1.5c1.1-0.4,1.2-2.3,1.1-3.2c-0.1-1.6-0.8-3.1-1.9-4.3c-0.8-0.9-2-1.3-3.2-1.1
		L124.2,220.1L124.2,220.1z M120.6,220.7c-0.7,0.2-1.4,0.6-1.9,1c-1.2,0.9-2,2.3-2.3,3.8c-0.1,0.7,0.1,1.4,0.5,1.9
		c0.2,0.2,0.4,0.3,0.6,0.3c0.6,0,1.1-0.7,1.6-1.3l3.8-5.9l-0.2,0.1l-0.1-0.2C122,220.4,121.3,220.5,120.6,220.7L120.6,220.7z"/>
	<path class="st0" d="M115.5,245.7l-1-0.5c3.9-7.7,5.8-16.2,5.5-24.8h1.1C121.5,229.2,119.5,237.9,115.5,245.7z"/>
	<path class="st0" d="M137,243.7l-1.1,0.2c-1.9-9.1-7.2-17.2-14.7-22.7l0.6-0.9C129.6,225.9,135,234.2,137,243.7z"/>
	<path class="st9" d="M107.9,123.5l-0.8-0.7l0,0c-2.5-3.1-3.4-6.7-4.5-12.2c-0.3-1.4-0.6-3-0.9-4.7c-0.4-2.3-0.4-4.6,0.2-6.8
		c0.3-1.2,0.8-2.3,1.3-3.4c1.3,4.9,1.5,10.1,2,15.1C105.5,115.1,106.4,119.4,107.9,123.5z"/>
	<path class="st9" d="M129.6,146.1c-12.5,17.4-28-7.7-37.4-7.5c-1.5,0.3-2.9,0.9-4.2,1.7c-0.4-0.1-0.8-0.1-1.2-0.1
		c-1.6,0-3.2,0.5-4.5,1.5c-0.9-1,3.1-6.7,3.3-8c1.4-8.3,10.1-14.7,18.4-13.5c0,0,13.3,2.7,17.4,7c2.6,2.8,6.6,6.9,8.2,11.3
		C130.7,141,130.7,143.7,129.6,146.1z"/>
	<path class="st12" d="M109,117.5c0.6,5.7,1.1,13.6-2,18.2c-1.1,1.5-1.2,3.6-0.1,5.2c1.4,2.1,4.1,4.9,9.4,8.2c3.1,2,7.2,1,9.2-2.1
		c0.6-0.9,0.9-1.9,1-2.9l0,0c0.2-2.5-1.2-4.8-3.5-5.9c-4.6-2.2-4.1-4.9-2.7-9.2L109,117.5z"/>
	<path class="st8" d="M113.5,122.2l6.6,6.8c-0.4,1.1-0.7,2.3-0.9,3.5c-2.7-0.6-6.7-3.3-7-6.3C112.3,124.7,112.7,123.4,113.5,122.2z"
		/>
	<path class="st12" d="M133.1,117.5c-0.6,6.8-6.3,12-13.1,12.1h-0.1c-2.6,0-5.1-0.6-7.3-1.9c-0.8-0.5-1.6-1-2.3-1.6
		c-0.3-0.2-0.6-0.5-0.9-0.7c-0.9-0.8-1.7-1.6-2.4-2.5l0,0c-2.5-3.1-3.4-6.7-4.5-12.2c-0.3-1.4-0.6-3-0.9-4.7
		c-0.4-2.3-0.4-4.6,0.2-6.8c0.3-1.2,0.8-2.3,1.3-3.4c0.3-0.5,0.5-0.9,0.9-1.4c3.5-5,9.8-7.3,15.7-5.7c5,1.3,8.4,5.3,10.5,10.3
		c0.2,0.5,0.4,1,0.6,1.5C132.9,105.9,133.6,111.7,133.1,117.5z"/>
	<path class="st9" d="M118.9,106.5c0.1,0.9,0.7,1.5,1.2,1.5c0.6-0.1,0.9-0.9,0.8-1.7s-0.7-1.5-1.2-1.5
		C119.2,104.9,118.8,105.7,118.9,106.5z"/>
	<path class="st9" d="M128.6,105.3c0.1,0.9,0.7,1.5,1.2,1.5c0.6-0.1,0.9-0.9,0.8-1.7c-0.1-0.9-0.7-1.5-1.2-1.5
		C128.9,103.7,128.5,104.4,128.6,105.3z"/>
	<path class="st10" d="M125.8,107.3c1,1.9,2.3,3.7,3.8,5.2c-0.8,0.8-1.9,1.1-3,1L125.8,107.3z"/>
	<path class="st9" d="M122.3,117.5c0.4,0,0.9,0,1.3-0.1c0.1,0,0.2-0.1,0.2-0.3l0,0c0-0.1-0.2-0.2-0.3-0.2c-2.2,0.3-4.4-0.4-5.9-2
		c-0.1-0.1-0.2-0.1-0.3,0c0,0,0,0,0,0c-0.1,0.1-0.1,0.3,0,0.4c0,0,0,0,0,0C118.6,116.7,120.4,117.5,122.3,117.5z"/>
	<path class="st9" d="M114.7,105c0.2,0,0.4-0.1,0.5-0.3c0.8-1.5,2.1-2.6,3.7-3.1c0.3-0.1,0.4-0.4,0.4-0.6c-0.1-0.3-0.3-0.4-0.6-0.4
		l0,0c-2,0.5-3.6,1.9-4.4,3.8c-0.1,0.3,0,0.6,0.3,0.7l0,0C114.6,105,114.7,105,114.7,105z"/>
	<path class="st9" d="M131,100.3c0.3,0,0.5-0.2,0.5-0.5c0-0.2-0.1-0.4-0.2-0.5c-1.4-1-3.1-1.2-4.7-0.5c-0.2,0.1-0.4,0.4-0.3,0.7l0,0
		c0.1,0.2,0.4,0.4,0.6,0.3c0,0,0,0,0,0l0,0c1.2-0.5,2.6-0.3,3.7,0.5C130.8,100.3,130.9,100.4,131,100.3z"/>
	<path class="st9" d="M107.9,113.5c-0.5,0.6-1.9-2.6-2.7-2.8c-0.9-0.2-1.8-0.3-2.7-0.2c1.1,5.5,2,9.1,4.5,12.2
		c-4.1-3.5-7.8-7.8-9.4-13c-1.7-5.9,0-12.3,4.4-16.6c0.3-0.3,0.9-0.2,1.3,0c0.4,0.2,2.6,0.6,3.5,0.8c1.4,0.3,2.5,1.3,3,2.6
		C106.1,103.6,109.3,111.7,107.9,113.5z"/>
	<path class="st12" d="M99.8,114.6c0.9,1.8,2.5,3.3,4.4,3.9c2.6,0.8,4-1.5,3.4-4c-0.6-2.3-2.6-5.5-5.2-5.3c-1.9,0.2-3.3,2-3.1,3.9
		C99.4,113.6,99.5,114.1,99.8,114.6z"/>
	<path class="st9" d="M120.2,97.3l-5.4-1.7c4.1,0.2,8.3,0.4,11.9,2.3c3.6,1.8,6.5,5.8,5.9,9.8c1.8-3.7,3.6-7.7,3.4-11.8
		c-0.3-4.5-2.6-8.6-6.2-11.3c-3.6-2.6-8-4-12.5-4c-3.9-0.3-7.8,0.8-10.9,3.1c-2.9,2.3-5.8,8.4-2.6,11.6S116,97.8,120.2,97.3z"/>
	<path class="st9" d="M376.9,322.5c-0.5-1.3-1.4-2.4-2.6-3.2l0,0c-0.3-0.1-0.6-0.3-0.8-0.4l-11.2-6.7l-2.1-1.3
		c-42.2-25.1-143.3-84.9-157.1-91c-10.2-4.5-25.2-3.6-35.9-2.1c-3.7,0.5-6.7,3.1-7.6,6.7c-1,3.4,0.2,7.2,3,9.4l0.2,0.2
		c0.5,0.4,0.5,1.1,0.2,1.5c-0.4,0.5-1.1,0.5-1.5,0.2l-0.2-0.2c-3.5-2.8-4.9-7.4-3.7-11.7c1.2-4.4,4.9-7.7,9.4-8.3
		c11-1.6,26.4-2.5,37.1,2.3c13.9,6.1,115,66,157.3,91.1l13.3,7.9c0.2,0.1,0.4,0.2,0.6,0.3l0.1,0.1l0,0c2.2,0.8,3.8,2.7,4.2,4.9
		L376.9,322.5z"/>
	<path class="st9" d="M375.3,317.3l-0.1-0.1c-0.2-0.1-0.4-0.2-0.6-0.3l-13.3-7.9C367.3,312.6,372.1,315.4,375.3,317.3z"/>
	<path class="st12" d="M146.2,215.6l15.1,5.9c0,0,5.4-10.1,5.5-11.2c0,0-5.4-3.6-10.8-3l-5,0.9L146.2,215.6z"/>
	<path class="st12" d="M158.9,220.7l7.3-10.6l5.2,2.4c0.9,0.4,1.3,1.5,0.9,2.3c0,0.1-0.1,0.1-0.1,0.2l-3.8,5.9
		c-0.8,1.3-2.4,1.8-3.8,1.4L158.9,220.7z"/>
	<path class="st0" d="M86.9,208c10.2,4.8,57.6,8.7,60.1,8.2c1.9-0.2,3.6-1.4,4.5-3.2c1.3-3.1-0.1-6.6-3.2-7.9
		c-0.3-0.1-0.6-0.2-0.9-0.3c-11-2.9-38.8-8.6-47.2-12.2c-6.6-2.8,0.4-49.7-11.8-52.3C68.6,136.1,74.8,202.3,86.9,208z"/>
	<path class="st14" d="M86.9,208c10.2,4.8,57.6,8.7,60.1,8.2c1.9-0.2,3.6-1.4,4.5-3.2c1.3-3.1-0.1-6.6-3.2-7.9
		c-0.3-0.1-0.6-0.2-0.9-0.3c-11-2.9-38.8-8.6-47.2-12.2c-6.6-2.8,0.4-49.7-11.8-52.3C68.6,136.1,74.8,202.3,86.9,208z"/>
</g>
</svg>
